<?xml version="1.0" encoding="UTF-8"?>
<svg id="a" data-name="Слой 1" xmlns="http://www.w3.org/2000/svg" viewBox="0 0 16 16">
  <defs>
    <style>
      .b {
        fill: #161515;
      }

      .c {
        fill: #e3161b;
      }

      .d {
        fill: none;
      }
    </style>
  </defs>
  <path class="c" d="M14.49,6.74L9.72,1.66c-.37-.4-.88-.63-1.45-.66-.54-.03-1.08,.17-1.48,.57L1.71,6.37c-.4,.37-.63,.89-.65,1.46s.17,1.09,.57,1.49l4.77,5.11c.37,.4,.88,.63,1.45,.66,.26,0,.51-.03,.74-.11,.26-.09,.51-.26,.74-.46l5.09-4.8c.82-.8,.88-2.11,.09-2.97Zm-5.4,1.14c.06,.49-.23,.97-.68,1.14-.4,.14-.88,0-1.17-.31-.28-.34-.31-.83-.09-1.2,.23-.4,.68-.6,1.14-.49,.4,.09,.74,.43,.8,.86Zm0-4.17c.06,.49-.23,.97-.68,1.14-.4,.14-.88,0-1.17-.31-.28-.34-.31-.83-.09-1.2,.23-.4,.68-.6,1.14-.49,.4,.09,.74,.43,.8,.86Zm0,8.23c.06,.49-.23,.97-.68,1.14-.4,.14-.88,0-1.17-.31-.28-.34-.31-.83-.09-1.2,.23-.4,.68-.6,1.14-.49,.4,.09,.74,.43,.8,.86Z"/>
  <path class="b" d="M2.43,8.62s-.03,0-.04-.01c-.01-.01-.02-.02-.02-.03v-1.1s0-.02,.02-.03c.01,0,.02-.01,.04-.01h.61c.09,0,.16,.01,.22,.03,.06,.02,.11,.05,.14,.08,.04,.03,.06,.07,.08,.11,.02,.04,.02,.08,.02,.13,0,.03,0,.06-.01,.08,0,.02-.02,.05-.03,.06-.01,.02-.02,.03-.04,.04s-.02,.02-.03,.02c.05,.03,.08,.07,.1,.11,.02,.04,.03,.09,.03,.14,0,.05,0,.09-.02,.14s-.04,.08-.08,.12c-.04,.04-.08,.06-.14,.08-.06,.02-.13,.03-.21,.03h-.65Zm.72-.83s0-.05-.03-.07c-.02-.02-.05-.02-.09-.02h-.3v.19h.3s.07,0,.09-.02c.02-.02,.03-.05,.03-.07Zm-.42,.57h.32s.07-.01,.09-.03c.02-.02,.04-.05,.04-.07s-.01-.05-.04-.07c-.02-.02-.06-.03-.09-.03h-.32v.2Zm2.09-.01s.03,0,.04,.01c.01,.01,.02,.02,.02,.03v.18s0,.02-.02,.03c-.01,.01-.02,.01-.04,.01h-.91s-.03,0-.04-.01c-.01-.01-.02-.02-.02-.03v-1.1s0-.02,.02-.03c.01-.01,.02-.01,.04-.01h.89s.03,0,.04,.01c.01,.01,.02,.02,.02,.03v.18s0,.02-.02,.03c-.01,0-.02,.01-.04,.01h-.59v.18h.55s.03,0,.04,.01c.01,.01,.02,.02,.02,.03v.18s0,.02-.02,.03c-.01,.01-.02,.01-.04,.01h-.55v.19h.61Zm1.38-.92s.03,0,.04,.01c.01,.01,.02,.02,.02,.03v.18s0,.02-.02,.03c-.01,.01-.02,.01-.04,.01h-.34v.88s0,.02-.02,.03c-.01,.01-.02,.01-.04,.01h-.25s-.03,0-.04-.01c-.01-.01-.02-.02-.02-.03v-.87h-.34s-.03,0-.04-.01c0-.01-.02-.02-.02-.03v-.18s0-.02,.02-.03c.01-.01,.02-.01,.04-.01h1.03Z"/>
  <path class="b" d="M10.35,7.43s.04,0,.06,.02c.02,.01,.02,.02,.03,.04l.42,1.07s0,.02,0,.02c0,.01,0,.02-.01,.02,0,0-.02,.01-.03,.01h-.24s-.04,0-.06-.01c-.01-.01-.02-.02-.02-.03l-.06-.14h-.51l-.06,.14s0,.02-.02,.03c-.01,.01-.03,.01-.06,.01h-.24s-.02,0-.03-.01c0,0-.01-.02-.01-.02s0-.01,0-.02l.42-1.07s.02-.02,.03-.04c.01-.01,.03-.02,.06-.02h.31Zm-.31,.74h.31l-.15-.41-.15,.41Zm1.66,.15s-.02-.02-.03-.03l-.18-.28v.56s0,.02-.02,.03c-.01,.01-.02,.01-.04,.01h-.25s-.03,0-.04-.01c-.01-.01-.02-.02-.02-.03v-1.1s0-.02,.02-.03c.01-.01,.02-.01,.04-.01h.22s.04,0,.06,.02c.01,.01,.02,.02,.02,.03l.31,.47,.31-.47s.01-.01,.02-.03c.01-.01,.03-.02,.06-.02h.22s.03,0,.04,.01c.01,.01,.02,.02,.02,.03v1.1s0,.02-.02,.03c-.01,.01-.02,.01-.04,.01h-.24s-.03,0-.04-.01c-.01-.01-.02-.02-.02-.03v-.56l-.18,.28s-.02,.02-.03,.03c-.01,.01-.03,.01-.04,.01h-.12s-.04,0-.05-.02Zm1.12-.45c0-.06,.02-.12,.05-.18s.07-.11,.11-.15c.05-.04,.11-.07,.18-.1,.07-.02,.15-.04,.25-.04s.17,.01,.25,.04c.07,.02,.13,.06,.19,.1,.05,.04,.09,.09,.11,.15,.03,.06,.04,.12,.05,.18,0,.05,0,.1,0,.15s0,.1,0,.15c0,.06-.02,.12-.05,.18-.03,.06-.07,.11-.11,.15-.05,.04-.11,.07-.19,.1-.07,.02-.15,.04-.25,.04s-.18-.01-.25-.04c-.07-.02-.13-.06-.18-.1-.05-.04-.09-.09-.11-.15-.03-.06-.04-.12-.05-.18,0-.05,0-.1,0-.15,0-.05,0-.1,0-.15Zm.84,.3s0-.04,0-.07v-.15s0-.05,0-.07c0-.03,0-.05-.02-.08-.01-.02-.03-.05-.05-.06-.02-.02-.04-.03-.08-.04-.03-.01-.06-.01-.1-.01s-.08,0-.1,.01c-.03,.01-.06,.02-.08,.04-.02,.02-.04,.04-.05,.06-.01,.02-.02,.05-.02,.08,0,.02,0,.04,0,.07v.15s0,.05,0,.07c0,.06,.03,.1,.07,.14,.04,.04,.1,.06,.18,.06s.14-.02,.17-.06c.04-.04,.07-.08,.07-.14Z"/>
  <path class="d" d="M0,0H16V16H0V0Z"/>
</svg>